<svg xmlns="http://www.w3.org/2000/svg" viewBox="0 0 512 512" role="img" aria-label="EasyCommute icon">
  <defs>
    <linearGradient id="g" x1="0" y1="0" x2="1" y2="1">
      <stop offset="0" stop-color="#10b981"/>
      <stop offset="1" stop-color="#059669"/>
    </linearGradient>
  </defs>
  <rect width="512" height="512" rx="120" fill="url(#g)"/>
  <path d="M144 188c0-26.5 21.5-48 48-48h128c26.5 0 48 21.5 48 48v144c0 22.1-17.9 40-40 40h-8v20c0 11-9 20-20 20s-20-9-20-20v-20H232v20c0 11-9 20-20 20s-20-9-20-20v-20h-8c-22.1 0-40-17.9-40-40V188z" fill="#fff" opacity="0.95"/>
  <path d="M188 196h136c8.8 0 16 7.2 16 16v44H172v-44c0-8.8 7.2-16 16-16z" fill="#eafff7"/>
  <circle cx="204" cy="332" r="18" fill="#0f172a" opacity="0.85"/>
  <circle cx="308" cy="332" r="18" fill="#0f172a" opacity="0.85"/>
  <path d="M172 276h168v24c0 8.8-7.2 16-16 16H188c-8.8 0-16-7.2-16-16v-24z" fill="#eafff7"/>
</svg>

